<?xml version="1.0" encoding="utf-8"?>
<!-- Generator: Adobe Illustrator 24.1.2, SVG Export Plug-In . SVG Version: 6.00 Build 0)  -->
<svg version="1.1" id="Layer_1" xmlns="http://www.w3.org/2000/svg" xmlns:xlink="http://www.w3.org/1999/xlink" x="0px" y="0px"
	 viewBox="0 0 397.33 397.33" style="enable-background:new 0 0 397.33 397.33;" xml:space="preserve">
<style type="text/css">
	.st0{clip-path:url(#SVGID_2_);}
	.st1{fill:none;stroke:#000000;stroke-width:28;stroke-miterlimit:10;}
	.st2{fill:none;stroke:#000000;stroke-width:28;stroke-linecap:round;stroke-miterlimit:10;}
	.st3{fill:none;stroke:#000000;stroke-width:20;stroke-linecap:round;stroke-miterlimit:10;}
</style>
<g>
	<defs>
		<rect id="SVGID_1_" x="-0.72" width="397.33" height="397.33"/>
	</defs>
	<clipPath id="SVGID_2_">
		<use xlink:href="#SVGID_1_"  style="overflow:visible;"/>
	</clipPath>
	<g class="st0">
		<rect x="10.07" y="10.85" class="st1" width="376.92" height="376.92"/>
		<path class="st2" d="M53.91,319.45c49.1,11.85,85.32,7.5,109.33,1.33c35.41-9.09,58.78-25.86,89.33-17.33
			c20.46,5.71,34.38,20.04,42.67,30.67"/>
		<path class="st1" d="M53.91,320.09c20.11-28.99,43.75-60.09,71.43-92.12c26.38-30.53,52.44-57.3,77.09-80.58"/>
		<path class="st2" d="M202.43,147.39c10.78,2.41,27.46,4.83,47.03,1.74c30.52-4.81,42.01-15.93,63.12-18.38
			c16.8-1.95,41.52,1.9,74.42,29.7"/>
		<path class="st3" d="M289.14,326.9c18.49-31.12,38.51-63.05,60.2-95.57c12.55-18.83,25.12-37.05,37.66-54.67"/>
		<path class="st2" d="M536.58,319.45c-49.1,11.85-85.32,7.5-109.33,1.33c-35.41-9.09-58.78-25.86-89.33-17.33
			c-20.46,5.71-34.38,20.04-42.67,30.67"/>
	</g>
	<use xlink:href="#SVGID_1_"  style="overflow:visible;fill:none;stroke:#000000;stroke-miterlimit:10;"/>
</g>
</svg>
