<?xml version="1.0" encoding="utf-8"?>
<!-- Generator: Adobe Illustrator 24.1.2, SVG Export Plug-In . SVG Version: 6.00 Build 0)  -->
<svg version="1.1" id="Layer_1" xmlns="http://www.w3.org/2000/svg" xmlns:xlink="http://www.w3.org/1999/xlink" x="0px" y="0px"
	 viewBox="0 0 397.3 397.3" style="enable-background:new 0 0 397.3 397.3;" xml:space="preserve">
<style type="text/css">
	.st0{clip-path:url(#SVGID_3_);}
	.st1{fill:none;stroke:#FFFFFF;stroke-width:28;stroke-miterlimit:10;}
	.st2{fill:none;stroke:#FFFFFF;stroke-width:28;stroke-linecap:round;stroke-miterlimit:10;}
	.st3{fill:none;stroke:#FFFFFF;stroke-width:20;stroke-linecap:round;stroke-miterlimit:10;}
	.st4{fill:none;stroke:#FFFFFF;stroke-miterlimit:10;}
</style>
<g>
	<g>
		<defs>
			<rect id="SVGID_2_" x="-0.7" y="0" width="397.3" height="397.3"/>
		</defs>
		<clipPath id="SVGID_3_">
			<use xlink:href="#SVGID_2_"  style="overflow:visible;"/>
		</clipPath>
		<g class="st0">
			<rect x="10.1" y="10.8" class="st1" width="376.9" height="376.9"/>
			<path class="st2" d="M53.9,319.4c49.1,11.9,85.3,7.5,109.3,1.3c35.4-9.1,58.8-25.9,89.3-17.3c20.5,5.7,34.4,20,42.7,30.7"/>
			<path class="st1" d="M53.9,320.1c20.1-29,43.8-60.1,71.4-92.1c26.4-30.5,52.4-57.3,77.1-80.6"/>
			<path class="st2" d="M202.4,147.4c10.8,2.4,27.5,4.8,47,1.7c30.5-4.8,42-15.9,63.1-18.4c16.8-1.9,41.5,1.9,74.4,29.7"/>
			<path class="st3" d="M289.1,326.9c18.5-31.1,38.5-63,60.2-95.6c12.5-18.8,25.1-37.1,37.7-54.7"/>
			<path class="st2" d="M536.6,319.4c-49.1,11.9-85.3,7.5-109.3,1.3c-35.4-9.1-58.8-25.9-89.3-17.3c-20.5,5.7-34.4,20-42.7,30.7"/>
		</g>
		<use xlink:href="#SVGID_2_"  style="overflow:visible;fill:none;stroke:#FFFFFF;stroke-miterlimit:10;"/>
	</g>
	<g>
		<rect id="SVGID_1_" x="-0.7" y="0" class="st4" width="397.3" height="397.3"/>
	</g>
</g>
</svg>
